{
  "asset": {
    "version": "2.0",
    "generator": "THREE.GLTFExporter r164"
  },
  "scenes": [
    {
      "name": "AuxScene",
      "nodes": [
        2
      ]
    }
  ],
  "scene": 0,
  "nodes": [
    {
      "matrix": [
        -99.9999999999925,
        -1.852884572118783e-20,
        -0.000038941437775530126,
        0,
        -0.00003894143777553,
        0.000007549789948768647,
        99.99999999999213,
        0,
        2.9399967395294684e-12,
        99.99999999999972,
        -0.000007549789970973109,
        0,
        0,
        0,
        0,
        1
      ],
      "name": "ship",
      "extras": {
        "originalName": "ship",
        "transformData": {
          "inheritType": 1,
          "eulerOrder": "ZYX",
          "rotation": [
            -89.999995674289,
            179.99997768819966,
            0
          ],
          "scale": [
            100,
            100,
            100
          ],
          "parentMatrix": {
            "elements": [
              1,
              0,
              0,
              0,
              0,
              1,
              0,
              0,
              0,
              0,
              1,
              0,
              0,
              0,
              0,
              1
            ]
          },
          "parentMatrixWorld": {
            "elements": [
              1,
              0,
              0,
              0,
              0,
              1,
              0,
              0,
              0,
              0,
              1,
              0,
              0,
              0,
              0,
              1
            ]
          }
        }
      },
      "mesh": 0
    },
    {
      "matrix": [
        74.86906138792303,
        -43.48193627589492,
        -50.039433096213536,
        0,
        66.006632524334,
        55.89224474286098,
        50.19144788110484,
        0,
        6.143949030464818,
        -70.60721064666939,
        70.5469609197158,
        0,
        473.63117476066213,
        646.278475211611,
        -50.353947016356095,
        1
      ],
      "name": "Lamp",
      "extras": {
        "originalName": "Lamp",
        "transformData": {
          "inheritType": 1,
          "eulerOrder": "ZYX",
          "translation": [
            407.6245422363281,
            590.38623046875,
            -100.54539489746094
          ],
          "rotation": [
            35.4303871306743,
            30.026092157455505,
            -30.146866977454255
          ],
          "scale": [
            100,
            100,
            100
          ],
          "parentMatrix": {
            "elements": [
              1,
              0,
              0,
              0,
              0,
              1,
              0,
              0,
              0,
              0,
              1,
              0,
              0,
              0,
              0,
              1
            ]
          },
          "parentMatrixWorld": {
            "elements": [
              1,
              0,
              0,
              0,
              0,
              1,
              0,
              0,
              0,
              0,
              1,
              0,
              0,
              0,
              0,
              1
            ]
          }
        }
      },
      "extensions": {
        "KHR_lights_punctual": {
          "light": 0
        }
      }
    },
    {
      "name": "entity_1",
      "extras": {
        "unitScaleFactor": 1
      },
      "children": [
        0,
        1
      ]
    }
  ],
  "bufferViews": [
    {
      "buffer": 0,
      "byteOffset": 0,
      "byteLength": 8892,
      "target": 34962,
      "byteStride": 12
    },
    {
      "buffer": 0,
      "byteOffset": 8892,
      "byteLength": 8892,
      "target": 34962,
      "byteStride": 12
    },
    {
      "buffer": 0,
      "byteOffset": 17784,
      "byteLength": 8892,
      "target": 34962,
      "byteStride": 12
    }
  ],
  "buffers": [
    {
      "byteLength": 26676,
      "uri": "data:application/octet-stream;base64,"
    }
  ],
  "accessors": [
    {
      "bufferView": 0,
      "componentType": 5126,
      "count": 741,
      "max": [
        0.9933604598045349,
        1.9383199214935303,
        0.22482508420944214
      ],
      "min": [
        -0.9933604598045349,
        -1.6369946002960205,
        -0.14910240471363068
      ],
      "type": "VEC3"
    },
    {
      "bufferView": 1,
      "componentType": 5126,
      "count": 741,
      "max": [
        1,
        1,
        1
      ],
      "min": [
        1,
        1,
        1
      ],
      "type": "VEC3"
    },
    {
      "bufferView": 2,
      "componentType": 5126,
      "count": 741,
      "max": [
        0.9988681077957153,
        1,
        1
      ],
      "min": [
        -0.9988681077957153,
        -1,
        -1
      ],
      "type": "VEC3"
    }
  ],
  "materials": [
    {
      "pbrMetallicRoughness": {
        "baseColorFactor": [
          0.6038273388475408,
          0.6038273388475408,
          0.6038273388475408,
          1
        ],
        "metallicFactor": 0.5,
        "roughnessFactor": 0.5
      },
      "name": "Material"
    }
  ],
  "meshes": [
    {
      "primitives": [
        {
          "mode": 4,
          "attributes": {
            "POSITION": 0,
            "COLOR_0": 1,
            "NORMAL": 2
          },
          "material": 0
        }
      ]
    }
  ],
  "extensions": {
    "KHR_lights_punctual": {
      "lights": [
        {
          "name": "Lamp",
          "color": [
            1,
            1,
            1
          ],
          "intensity": 1,
          "type": "directional"
        }
      ]
    }
  },
  "extensionsUsed": [
    "KHR_lights_punctual"
  ]
}